HIERARCHY
ROOT Hips
{
	OFFSET 4.086592 109.180443 -2.732395
	CHANNELS 6 Xposition Yposition Zposition Xrotation Yrotation Zrotation
	JOINT Chest
	{
		OFFSET 2.951220 13.209930 -1.715280
		CHANNELS 3 Xrotation Yrotation Zrotation
		JOINT Chest2
		{
			OFFSET -1.703825 21.021431 3.776608
			CHANNELS 3 Xrotation Yrotation Zrotation
			JOINT Chest3
			{
				OFFSET -1.026002 14.883667 -0.493864
				CHANNELS 3 Xrotation Yrotation Zrotation
				JOINT Neck
				{
					OFFSET -1.637190 17.145493 1.402729
					CHANNELS 3 Xrotation Yrotation Zrotation
					JOINT Head
					{
						OFFSET -3.090598 9.773407 2.180922
						CHANNELS 3 Xrotation Yrotation Zrotation
						End Site
						{
							OFFSET -3.068980 9.794800 2.114460
						}
					}
				}
				JOINT LeftCollar
				{
					OFFSET 2.856596 13.300629 4.091159
					CHANNELS 3 Xrotation Yrotation Zrotation
					JOINT LeftUpArm
					{
						OFFSET 15.091459 7.600235 -4.794132
						CHANNELS 3 Xrotation Yrotation Zrotation
						JOINT LeftLowArm
						{
							OFFSET 22.117287 23.374695 10.206716
							CHANNELS 3 Xrotation Yrotation Zrotation
							JOINT LeftHand
							{
								OFFSET 13.312321 25.591339 8.295317
								CHANNELS 3 Xrotation Yrotation Zrotation
								End Site
								{
									OFFSET 2.909485 5.593140 1.812984
								}
							}
						}
					}
				}
				JOINT RightCollar
				{
					OFFSET -5.519279 12.524277 3.806398
					CHANNELS 3 Xrotation Yrotation Zrotation
					JOINT RightUpArm
					{
						OFFSET -16.339262 -5.133957 -3.894549
						CHANNELS 3 Xrotation Yrotation Zrotation
						JOINT RightLowArm
						{
							OFFSET -19.849497 -15.036118 22.795776
							CHANNELS 3 Xrotation Yrotation Zrotation
							JOINT RightHand
							{
								OFFSET 11.612671 18.311584 20.755419
								CHANNELS 3 Xrotation Yrotation Zrotation
								End Site
								{
									OFFSET 2.538055 4.002167 4.536312
								}
							}
						}
					}
				}
			}
		}
	}
	JOINT LeftUpLeg
	{
		OFFSET 9.521928 -1.795761 2.554854
		CHANNELS 3 Xrotation Yrotation Zrotation
		JOINT LeftLowLeg
		{
			OFFSET 2.080756 -47.232380 2.960315
			CHANNELS 3 Xrotation Yrotation Zrotation
			JOINT LeftFoot
			{
				OFFSET -2.651349 -42.755077 -12.866346
				CHANNELS 3 Xrotation Yrotation Zrotation
				JOINT LeftToe
				{
					OFFSET -1.372435 -16.632599 16.764038
					CHANNELS 3 Xrotation Yrotation Zrotation
					End Site
					{
						OFFSET 0.704861 -2.343386 23.528082
					}
				}
			}
		}
	}
	JOINT RightUpLeg
	{
		OFFSET -9.521975 1.795570 -2.554830
		CHANNELS 3 Xrotation Yrotation Zrotation
		JOINT RightLowLeg
		{
			OFFSET -32.832901 9.564842 32.779949
			CHANNELS 3 Xrotation Yrotation Zrotation
			JOINT RightFoot
			{
				OFFSET -8.106422 -42.321495 11.989841
				CHANNELS 3 Xrotation Yrotation Zrotation
				JOINT RightToe
				{
					OFFSET -13.208370 -3.325752 19.339985
					CHANNELS 3 Xrotation Yrotation Zrotation
					End Site
					{
						OFFSET -13.740273 12.020195 15.042477
					}
				}
			}
		}
	}
}
MOTION
Frames: 13
Frame Time: 0.033333
1.676231 106.023026 -1.111723 12.659721 12.411285 10.674289 -17.603510 3.794150 -13.046572 6.901139 3.440926 -0.870324 -0.837659 -11.998329 -4.898969 -8.778777 13.147237 -6.181297 -0.000003 -0.000000 -0.000003 13.504462 5.721089 -47.972626 25.945464 -9.626574 -65.901360 31.710362 0.893810 -5.447999 0.000000 -0.000002 -0.000004 10.508183 -14.968600 14.219205 38.151736 5.642779 27.052602 65.695731 -30.112993 20.200766 0.000002 0.000003 -0.000002 -5.913619 -1.117439 -11.224221 -8.495984 2.725178 2.955005 -1.000595 -12.032465 -3.711544 0.000001 0.000001 -0.000000 51.423316 21.625426 55.325895 -55.278709 4.187927 -47.593404 17.887581 31.369956 -16.130965 -0.000000 0.000001 -0.000002 
1.674202 106.020599 -1.114211 12.655628 12.249686 10.756011 -17.708833 3.828744 -13.151351 7.120162 3.526981 -0.957054 -0.944707 -12.198827 -4.804552 -8.485661 13.307650 -6.211590 -0.000000 -0.000001 -0.000003 13.456190 5.867398 -47.917465 25.909988 -9.513015 -66.213814 31.810394 0.553152 -4.969405 0.000000 0.000002 -0.000006 10.416314 -14.871246 14.086843 38.026737 5.839680 27.144799 65.716419 -29.979370 20.450549 -0.000003 0.000003 -0.000001 -6.289271 -1.107630 -11.342253 -8.160451 2.632091 2.930220 -0.893039 -11.732953 -3.547729 0.000001 0.000000 0.000001 51.442236 21.551532 55.269006 -55.250192 4.216631 -47.571783 17.772376 31.510361 -16.173340 0.000001 0.000003 0.000001 
1.672639 106.021622 -1.117507 12.545709 12.452411 10.662346 -17.848271 3.858412 -13.142220 7.345957 3.505357 -0.877258 -1.025264 -12.315763 -4.901088 -8.237576 13.121411 -6.135404 -0.000001 -0.000001 -0.000003 13.405249 6.180339 -47.998915 25.913809 -9.649635 -66.105767 31.686829 0.766820 -5.205830 -0.000003 -0.000001 -0.000000 10.448324 -15.302842 14.242529 37.768105 6.021949 26.949425 66.329941 -30.154619 20.756388 0.000002 0.000001 -0.000003 -6.320463 -1.053691 -11.282935 -8.110955 2.672975 2.972952 -0.820993 -11.833868 -3.587235 0.000001 0.000001 0.000001 51.446419 21.584699 55.353875 -55.342304 4.146249 -47.517083 17.703393 31.576689 -16.341847 0.000003 0.000000 -0.000000 
1.672558 106.018692 -1.119521 12.196449 12.649876 10.668598 -17.297958 3.739047 -13.082152 7.055097 3.424573 -0.837676 -1.090707 -12.406659 -5.059994 -7.897514 13.039144 -6.054061 0.000001 -0.000001 -0.000001 13.306499 6.028760 -47.914771 25.824694 -9.307268 -66.320153 31.520090 0.766374 -5.570208 -0.000003 0.000001 0.000002 10.367514 -15.204179 14.186726 38.006390 5.830591 27.243886 66.321724 -30.215022 20.851492 0.000000 0.000001 -0.000001 -5.928317 -1.128753 -11.247913 -8.263745 2.724823 3.000070 -0.544963 -11.943692 -3.612041 0.000001 0.000001 -0.000000 51.846791 21.570591 55.502831 -55.284207 4.144213 -47.493485 17.650238 31.392670 -16.153268 0.000001 0.000005 0.000000 
1.674988 106.020477 -1.121515 12.065380 12.685338 10.604281 -17.514243 3.771437 -13.017986 6.935442 3.422789 -0.814712 -0.739929 -12.331677 -5.027996 -7.680692 13.008247 -5.910340 0.000000 0.000003 -0.000002 13.345951 5.927752 -47.750016 25.940884 -9.496729 -66.394254 31.572645 0.800847 -5.280400 -0.000000 0.000003 -0.000004 10.415154 -15.552805 14.179228 38.096357 5.910854 27.266824 66.219927 -30.312062 20.827475 0.000003 0.000003 -0.000000 -5.972578 -1.165458 -11.186077 -8.152011 2.713217 2.974954 -0.486999 -11.769061 -3.512133 0.000000 0.000000 0.000002 52.121969 21.659428 55.633875 -55.304762 4.226382 -47.496992 17.535915 31.477152 -16.137881 -0.000000 0.000000 -0.000000 
1.675188 106.023300 -1.130561 11.909674 12.689097 10.575504 -17.483616 3.769929 -13.032665 7.780427 3.451377 -0.671637 -1.479036 -12.616357 -5.132963 -7.869347 13.053094 -6.020218 -0.000003 0.000001 -0.000002 13.332014 5.963239 -47.892095 25.747503 -9.403433 -66.382274 31.217666 0.640988 -5.494179 -0.000001 -0.000003 0.000001 10.378577 -15.091732 14.243793 37.805176 5.876660 27.151605 66.388551 -30.230468 21.273510 0.000000 0.000003 0.000002 -5.923140 -1.158361 -11.135629 -7.894317 2.584996 2.946348 -0.640303 -11.715844 -3.553617 0.000000 0.000001 0.000002 52.150564 21.651865 55.666841 -55.136005 4.174949 -47.512688 17.407097 31.259184 -15.982025 0.000002 -0.000001 0.000003 
1.677963 106.028671 -1.142029 12.486755 12.358140 10.720342 -17.870218 3.887912 -13.226651 6.912253 3.425253 -0.876708 -0.645744 -12.334089 -4.839026 -7.574308 13.048694 -5.973805 -0.000003 0.000001 -0.000001 13.399422 5.970288 -47.928500 25.824633 -9.491312 -66.357166 31.367019 0.569358 -5.088950 -0.000001 -0.000001 -0.000002 10.417106 -14.902453 14.233879 37.821349 5.956746 27.057168 66.383906 -30.398474 21.360547 0.000000 0.000003 0.000000 -6.350490 -1.091710 -11.301467 -8.115383 2.595227 2.843903 -0.613158 -11.552409 -3.470233 0.000001 0.000001 0.000001 51.500535 21.514724 55.314629 -54.904011 3.803852 -47.644176 17.685318 31.556570 -16.213394 -0.000000 -0.000002 0.000003 
1.680151 106.028877 -1.147127 12.193179 12.413176 10.759251 -17.537875 3.805686 -13.203200 6.592370 3.477417 -1.028696 -0.362279 -12.369187 -4.704559 -7.278995 12.864534 -5.861253 0.000000 0.000001 -0.000001 13.455387 5.861674 -47.952917 25.786498 -9.575724 -66.353771 31.086196 0.637626 -5.171970 0.000000 0.000001 -0.000001 10.420785 -15.242940 14.281769 37.898988 5.798116 27.046762 65.917575 -30.036833 20.972079 0.000001 0.000003 0.000000 -5.971537 -1.156279 -11.266881 -8.094428 2.591520 2.852024 -0.868194 -11.759932 -3.566741 0.000000 0.000001 0.000002 51.771075 21.478332 55.389443 -54.874044 3.702240 -47.603686 17.694918 31.520777 -16.283463 0.000003 0.000004 -0.000001 
1.678219 106.025299 -1.149257 12.219231 12.358615 10.687524 -17.745977 3.842384 -13.141948 7.271172 3.476766 -0.845032 -0.951029 -12.682454 -4.876629 -6.959305 13.073407 -5.969205 -0.000002 0.000001 -0.000003 13.201458 6.648470 -48.079816 25.663420 -9.327791 -66.514431 31.146001 0.402712 -5.518843 -0.000002 0.000003 0.000001 10.361513 -15.009008 14.240800 37.919533 5.576721 27.140679 66.178386 -29.935869 21.217477 0.000000 0.000003 0.000001 -5.774033 -1.201749 -11.130647 -8.258792 2.628898 2.778246 -0.706966 -11.791580 -3.586238 0.000001 0.000000 0.000002 51.855913 21.583963 55.495707 -54.945959 3.875839 -47.637465 17.917709 31.644314 -16.253062 0.000001 -0.000000 0.000002 
1.678139 106.026497 -1.157199 11.821624 12.472572 10.659500 -17.246532 3.700089 -13.015610 7.358275 3.392538 -0.698243 -1.282181 -12.566989 -5.086663 -6.867768 12.911833 -5.854442 -0.000001 0.000003 -0.000003 13.341439 5.821631 -47.867298 25.564286 -9.007508 -66.788827 31.229169 0.163132 -5.051321 -0.000002 0.000001 0.000001 10.356793 -15.492443 14.362122 37.933013 5.437382 27.160684 66.525851 -29.953562 21.454920 0.000002 0.000004 -0.000005 -5.404733 -1.249016 -11.066392 -8.291341 2.619692 2.830409 -0.885704 -11.822194 -3.609570 0.000001 0.000000 0.000001 51.949254 21.594333 55.552623 -54.724053 3.580508 -47.681192 17.727625 31.401194 -16.096695 -0.000001 -0.000002 0.000000 
1.674212 106.027840 -1.164229 11.542723 12.466497 10.695195 -17.029221 3.630271 -13.015536 7.540424 3.460871 -0.708979 -1.441038 -12.733357 -5.064135 -6.837968 12.923835 -5.765910 -0.000000 -0.000001 -0.000001 13.463817 5.949057 -47.949830 25.753059 -9.172128 -66.580438 31.361210 0.316886 -4.773332 -0.000000 0.000004 -0.000000 10.492327 -15.169944 14.368256 37.941223 5.643206 26.951561 66.132951 -30.372376 21.312975 -0.000001 0.000002 -0.000006 -5.520649 -1.232421 -11.096948 -7.775957 2.589830 2.873052 -1.088976 -11.717074 -3.521914 0.000001 0.000000 0.000002 51.854164 21.597917 55.522942 -54.604787 3.253454 -47.757547 17.533070 31.477897 -16.180266 0.000002 0.000002 -0.000001 
1.668499 106.027298 -1.171190 11.675139 12.337499 10.761577 -17.378732 3.750412 -13.129219 7.994896 3.476223 -0.621739 -1.814713 -12.780961 -5.148148 -6.350712 12.841382 -5.644306 -0.000001 0.000001 -0.000003 13.283582 6.258953 -47.973428 25.632141 -9.067068 -66.580541 31.149419 0.303944 -5.252240 -0.000003 -0.000001 -0.000002 10.423393 -14.971006 14.452540 37.950775 5.322351 26.929327 66.761097 -30.401787 21.873828 0.000004 0.000001 0.000002 -5.656457 -1.209810 -11.133452 -7.883242 2.637975 2.815044 -1.094149 -11.613299 -3.480944 0.000001 0.000000 0.000002 51.710724 21.591053 55.451038 -54.400718 3.048924 -47.887392 17.496820 31.688400 -16.263374 0.000001 0.000000 -0.000001 
1.659321 106.025291 -1.176829 11.593296 12.485833 10.743587 -17.489567 3.793431 -13.172564 7.517962 3.398720 -0.624055 -1.146220 -12.821100 -5.054049 -6.475875 12.747495 -5.580637 -0.000000 -0.000001 -0.000003 13.218974 6.297313 -47.983882 25.574742 -8.784056 -66.610696 30.990959 0.382405 -5.654042 0.000002 -0.000004 -0.000001 10.383934 -15.432561 14.596292 37.997503 5.116703 26.946621 66.953913 -30.323888 22.026163 0.000002 0.000001 -0.000003 -5.583512 -1.254134 -11.121162 -7.948507 2.596218 2.846494 -0.945557 -11.593017 -3.478086 0.000001 0.000001 -0.000000 51.937189 21.630746 55.532566 -54.518942 3.313471 -47.844676 17.426541 31.498920 -16.082934 0.000001 0.000005 -0.000000 
